<svg width="263" height="216" viewBox="0 0 263 216" fill="none" xmlns="http://www.w3.org/2000/svg">
<path d="M223.414 162.788C223.259 162.727 224.96 161.701 224.87 161.202C224.815 161.077 224.212 160.684 224.104 160.435C223.715 159.356 225.905 158.266 224.285 157.42C224.129 157.359 223.998 157.254 224.124 157.15C224.855 156.46 225.584 155.772 226.34 155.145C227.477 154.206 227.488 153.643 225.822 152.88C225.665 152.818 225.482 152.695 225.661 152.611C227.733 151.064 228.013 148.859 229.718 146.96C231.622 144.832 230.835 144.315 232.557 142.062C232.168 141.959 234.938 140.432 234.548 140.328C234.263 140.268 233.793 139.979 234.306 139.872C236.38 139.406 236.163 137.932 234.416 137.086C234.313 137.045 234.209 137.003 234.206 136.9C235.447 135.023 237.911 133.683 239.623 132.095C240.378 131.365 241.101 130.364 241.334 129.427C241.591 128.345 241.118 127.952 240.472 126.873C239.533 125.316 240.546 124.689 241.936 123.644C242.621 123.143 243.402 122.474 244.265 121.992L40.8441 47.7537C40.7449 47.9199 40.6704 48.0454 40.5193 48.1919C40.3446 48.3799 39.5577 48.8406 39.0278 49.2989C39.0604 49.5696 39.0164 49.8611 38.9193 50.1319C39.7251 50.3994 39.2911 50.5878 38.7276 50.6737C38.4366 51.3816 37.9348 51.9031 37.3283 52.3842C37.4916 52.7565 37.7845 53.1304 38.1508 53.3779C38.4133 53.5859 37.7719 53.6917 37.6953 53.7125C36.7203 53.8415 35.8682 53.7609 34.9395 53.703C34.7862 53.7448 34.6081 53.829 34.4548 53.8708C34.2767 53.955 34.0985 54.0393 33.8674 54.1028C33.9497 54.2885 33.8786 54.5178 33.6013 54.7682C33.9112 54.7885 34.1952 54.8502 34.5052 54.8686C34.9707 54.9499 36.5259 55.3604 35.268 55.5313C34.5512 55.6589 33.9346 55.7241 33.345 55.8515C33.2232 56.1629 33.1273 56.4347 33.0055 56.7462C33.658 57.0554 34.2846 57.4062 34.8086 57.7166C35.096 57.8821 34.3768 58.0097 34.3532 58.0513C33.5303 58.1375 32.1609 57.9559 32.0536 58.788C32.0106 59.1832 33.2401 59.9263 33.5579 60.2578C34.5618 61.2729 34.8918 62.125 34.5363 63.3744C34.3242 64.1643 33.8032 64.9367 33.5911 65.7265C33.4252 66.3314 33.469 67.0171 33.2512 67.6003C33.0831 68.1005 32.7844 68.4953 32.3807 68.8515C33.1043 68.9314 33.7005 69.1162 33.4457 69.2214C33.9382 69.3648 35.0022 69.631 34.2594 69.8001C33.388 69.9704 32.5652 70.0566 31.6386 70.1015C31.562 70.1224 30.8914 70.0632 30.2963 69.9821C29.8342 70.0046 28.9821 69.924 28.2315 69.7818C28.7103 70.3828 29.6198 70.6916 30.3286 71.23C30.4075 71.3119 30.3827 71.3544 30.333 71.4375C29.9272 71.689 29.5225 71.9397 29.2452 72.1901C29.4603 72.584 29.5999 72.9997 29.6866 73.3948C29.7385 73.4145 29.7666 73.4777 29.7406 73.5192C29.834 74.1218 29.8745 74.7037 29.7086 75.3066C29.4986 76.203 28.6655 76.8505 27.6409 77.0626C27.2428 77.6254 26.8448 78.1882 26.9122 78.8323C26.974 79.2699 27.267 79.642 27.2274 80.141C27.2159 80.7031 26.9257 82.492 26.5503 82.9095C26.2751 83.2646 25.2505 83.4767 24.7162 83.7275C24.7162 83.7275 24.7162 83.7275 24.7668 83.7481C24.8198 83.7688 25.1591 83.9541 24.9291 84.0186C23.9855 84.4172 23.0668 84.7734 22.1244 85.173C21.9711 85.2148 21.6893 85.2577 21.3794 85.2375C20.9475 85.5305 20.518 85.8237 20.1144 86.1781C20.3477 86.2192 20.5529 86.1971 20.7862 86.2383C22.2852 86.4197 22.2963 86.9394 20.7521 86.9457C20.2889 86.9673 19.7986 86.9285 19.3365 86.951C18.9351 87.41 18.7648 87.8055 19.0555 88.0748C19.1332 88.1576 19.1095 88.1992 19.0599 88.2823C18.4782 88.7209 17.8976 89.1605 17.4195 89.6404C17.4713 89.662 17.5232 89.6817 17.6528 89.6815C17.9638 89.8055 17.9142 89.8886 17.6843 89.9512C18.1013 90.1165 18.5171 90.2809 18.9082 90.4877C19.0648 90.5497 19.1955 90.6533 19.0693 90.7572C18.1391 91.6756 17.8481 92.3835 18.1092 93.5677C18.1374 93.6309 17.9581 93.7142 17.7282 93.7768L220.81 167.83C221.603 167.578 223.006 167.052 223.324 166.406C223.718 165.636 223.651 166.073 223.145 165.41C222.588 164.725 222.072 164.727 222.75 164.018" fill="#FFC95F" fill-opacity="0.7"/>
</svg>
