<svg width="359" height="88" viewBox="0 0 359 88" fill="none" xmlns="http://www.w3.org/2000/svg">
<path d="M184.88 66.7637H174.983C175.023 66.6874 175.065 66.6098 175.104 66.5336C181.334 54.4111 189.464 36.8068 195.13 24.3822C198.127 17.8219 203.136 7.64273 205.783 5.23776e-06L216.58 5.23776e-06C213.462 6.80832 210.524 13.1149 208.005 18.2017C200.143 34.0846 192.458 50.3791 184.88 66.7637Z" fill="#FAFAFA"/>
<path d="M105.175 45.5311C101.481 53.4455 99.7147 59.5802 96.5379 67.1023C95.0787 66.8708 93.505 66.7641 91.9313 66.7641H80.3364C89.4972 47.8707 98.3275 29.4084 101.805 15.9221C104.717 10.6232 107.563 5.31596 110.357 0.000430007L127.956 0.000430007C127.442 1.16472 126.919 2.32069 126.382 3.4628C119.472 18.1121 111.63 31.7204 105.175 45.5311Z" fill="#FAFAFA"/>
<path d="M145.813 66.764C143.487 66.764 141.213 66.9581 139.113 67.3198C140.703 63.5248 142.221 59.8559 143.644 56.3353C147.77 48.0952 150.845 46.2254 155.409 35.4225C158.583 25.4193 163.762 15.3426 171.133 0.000359425L189.762 0.000359425C179.528 22.898 170.007 44.8795 159.574 66.764H145.813Z" fill="#FAFAFA"/>
<path d="M284.596 66.7637H281.196C282.907 63.2084 284.851 59.2623 287.19 54.698C290.112 54.1242 287.907 59.8514 284.596 66.7637Z" fill="#FAFAFA"/>
<path d="M112.314 85.0113C111.833 85.4341 111.359 85.8527 110.894 86.2671C109.144 87.8236 103.605 87.1542 104.037 85.4396C104.246 84.6121 104.462 83.7777 104.668 82.9406C104.786 82.6786 104.897 82.4166 105.018 82.1533C108.974 73.5763 115.115 63.1476 119.152 54.1147C123.484 44.4234 124.76 38.699 129.183 29.3735C133.845 19.5408 138.798 9.77884 143.833 0.000194739H148.067C144.256 8.64504 140.608 17.1333 136.783 26.3866C128.875 45.5308 120.693 65.1976 112.314 85.0113Z" fill="#FAFAFA"/>
<path d="M359 11.2576V11.593C350.83 29.1793 343.148 47.5501 334.668 66.7207C333.935 66.747 333.199 66.7637 332.453 66.7637H328.809C338.313 46.1308 349.993 23.581 358.987 11.0219C358.99 11.101 359 11.1786 359 11.2576Z" fill="#FAFAFA"/>
<path d="M0 27.1835C5.20526 17.2483 9.05278 9.34218 12.74 1.64124C15.6878 0.878907 19.0118 0.353591 22.5649 0.126277C14.8666 16.7548 7.63286 33.0382 0 48.9973L0 27.1835Z" fill="#FAFAFA"/>
<path d="M67.1386 66.7637H62.6694C63.2911 65.1822 64.266 63.1973 66.0196 60.306C69.1899 59.2235 68.9282 62.1093 67.1386 66.7637Z" fill="#FAFAFA"/>
<path d="M359 55.5062C359 57.3289 357.973 59.049 356.157 60.5723C357.115 58.6359 358.064 56.7135 359 54.8049V55.5062Z" fill="#FAFAFA"/>
<path d="M313.491 46.0823C316.553 39.3183 318.267 32.352 321.762 24.8368C325.54 16.7117 329.499 8.40369 333.546 0.012491C338.997 0.105357 344.022 0.89541 348.145 2.1789C337.184 24.0509 327.186 45.0358 317.705 66.7637H303.826C307.157 59.7987 310.415 52.8837 313.491 46.0823Z" fill="#FAFAFA"/>
<path d="M231.28 66.7637H221.7C223.804 61.1973 226.071 55.4964 228.865 49.4116C233.308 39.7314 239.937 28.4877 244.769 17.858C247.053 12.8405 249.415 6.86238 252.261 5.23776e-06L259.737 5.23776e-06C249.559 21.1818 240.264 41.238 235.831 57.3745C234.293 60.5347 232.775 63.6644 231.28 66.7637Z" fill="#FAFAFA"/>
<path d="M260.613 66.7637H243.738C245.832 61.0656 247.523 55.8374 248.694 51.2093C252.905 42.4993 256.638 36.7139 259.854 33.9099C263.342 23.1846 268.39 11.7164 273.972 5.23776e-06L291.037 5.23776e-06C282.059 18.4401 272.617 37.4527 268.524 53.007C265.508 57.5505 262.943 62.1148 260.613 66.7637Z" fill="#FAFAFA"/>
<path d="M208.698 66.7637H197.408C199.505 61.3872 201.481 55.9081 203.755 50.8129C210.609 35.5094 220.031 17.2703 228.469 5.23776e-06L239.37 5.23776e-06C234.172 11.5999 229.333 23.1236 224.272 34.3174C219.21 45.5043 213.743 56.1243 208.698 66.7637Z" fill="#FAFAFA"/>
<path d="M0 11.2578C0 7.18416 5.10057 3.61783 12.74 1.64131C9.05278 9.34225 5.20526 17.2483 0 27.1836L0 11.2578Z" fill="#FAFAFA"/>
<path d="M358.986 11.0219C349.992 23.581 338.313 46.1308 328.808 66.7637H317.704C327.185 45.0358 337.184 24.0509 348.144 2.17889C354.586 4.18313 358.81 7.39047 358.986 11.0219Z" fill="#FAFAFA"/>
<path d="M313.491 46.0823C310.415 52.8837 307.157 59.7987 303.826 66.7637L284.595 66.7637C287.906 59.8514 290.111 54.1242 287.19 54.698C284.85 59.2623 282.907 63.2084 281.196 66.7637H260.614C262.943 62.1134 265.508 57.5505 268.525 53.007C272.618 37.4527 282.06 18.4401 291.037 5.23776e-06L332.454 5.23776e-06C332.82 5.23776e-06 333.183 0.00554956 333.546 0.0124798C329.499 8.40368 325.544 16.7117 321.762 24.8368C318.268 32.352 316.553 39.3197 313.491 46.0823Z" fill="#FAFAFA"/>
<path d="M197.408 66.7637H184.881C192.461 50.3791 200.143 34.0846 208.005 18.2017C210.524 13.1149 213.462 6.80832 216.58 5.23776e-06L228.47 5.23776e-06C220.032 17.2703 210.609 35.5094 203.755 50.8129C201.481 55.9081 199.505 61.3872 197.408 66.7637Z" fill="#FAFAFA"/>
<path d="M359 54.805C358.064 56.7136 357.116 58.6361 356.157 60.5724C352.1 63.9793 344.081 66.3911 334.668 66.7209C343.149 47.5504 350.831 29.1796 359 11.5932V54.805Z" fill="#FAFAFA"/>
<path d="M175.104 66.5336C175.065 66.6098 175.022 66.6874 174.983 66.7637H159.573C170.007 44.8792 179.527 22.8977 189.761 5.23776e-06L205.783 5.23776e-06C203.136 7.64273 198.127 17.8219 195.133 24.3822C189.463 36.8068 181.333 54.4111 175.104 66.5336Z" fill="#FAFAFA"/>
<path d="M228.862 49.4116C226.071 55.4964 223.8 61.1973 221.7 66.7637H208.698C213.743 56.1243 219.21 45.5043 224.272 34.3174C229.333 23.1236 234.172 11.5999 239.37 5.23776e-06L252.261 5.23776e-06C249.414 6.86238 247.052 12.8405 244.769 17.858C239.936 28.4877 233.308 39.7314 228.862 49.4116Z" fill="#FAFAFA"/>
<path d="M143.644 56.3353C142.221 59.8559 140.706 63.5248 139.112 67.3198C136.112 67.8354 133.465 68.6948 131.545 69.8425C126.549 72.8252 118.825 79.2732 112.314 85.0115C120.693 65.1978 128.875 45.531 136.783 26.3867C140.608 17.1334 144.256 8.64519 148.067 0.000347598H171.132C163.761 15.3426 158.582 25.4193 155.409 35.4225C150.845 46.2254 147.769 48.0952 143.644 56.3353Z" fill="#FAFAFA"/>
<path d="M119.152 54.1146C115.115 63.1475 108.974 73.5762 105.018 82.1531C104.897 82.4165 104.789 82.6785 104.668 82.9404C106.268 76.4634 107.23 69.9586 98.596 67.5413C97.9482 67.3597 97.2579 67.217 96.5381 67.1019C99.7149 59.5798 101.482 53.4437 105.175 45.5307C111.63 31.72 119.473 18.1117 126.382 3.46245C126.922 2.32034 127.443 1.16437 127.956 8.10669e-05L143.834 8.10669e-05C138.799 9.77872 133.845 19.5407 129.183 29.3734C124.76 38.6988 123.484 44.4233 119.152 54.1146Z" fill="#FAFAFA"/>
<path d="M80.3365 66.7637H67.1384C68.9281 62.1093 69.1865 59.2235 66.0195 60.306C64.2626 63.1973 63.2909 65.1822 62.6693 66.7637L26.5465 66.7637C11.8861 66.7637 0 61.7226 0 55.5061L0 48.9958C7.62959 33.0367 14.8666 16.7547 22.5649 0.126137C23.8637 0.0429731 25.1953 5.23776e-06 26.5465 5.23776e-06L110.358 5.23776e-06C107.563 5.31554 104.717 10.6228 101.805 15.9217C98.3275 29.408 89.4972 47.8703 80.3365 66.7637Z" fill="#FAFAFA"/>
<path d="M248.695 51.2093C247.524 55.8374 245.832 61.0656 243.738 66.7637H231.276C232.775 63.6631 234.29 60.5347 235.827 57.3745C240.264 41.238 249.562 21.1818 259.737 5.23776e-06L273.972 5.23776e-06C268.39 11.7164 263.342 23.1846 259.858 33.9113C256.639 36.7139 252.906 42.4993 248.695 51.2093Z" fill="#FAFAFA"/>
</svg>
