<svg width="279" height="155" viewBox="0 0 279 155" fill="none" xmlns="http://www.w3.org/2000/svg">
<path d="M-23.5755 100.44C-23.3628 100.373 -23.6632 102.654 -22.9856 103.038C-22.786 103.108 -21.775 102.99 -21.3802 103.131C-19.7398 103.809 -20.4021 106.534 -17.9349 106.026C-17.7222 105.959 -17.4787 105.95 -17.4678 106.145C-17.2989 107.352 -17.13 108.557 -17.0598 109.726C-16.9568 111.482 -16.2945 112.004 -13.8843 111.383C-13.6693 111.315 -13.3579 111.284 -13.4171 111.501C-13.4281 114.55 -11.042 116.783 -10.3008 119.864C-9.4652 123.311 -8.14058 123.161 -6.9914 126.578C-6.51989 126.364 -7.18001 129.947 -6.7063 129.733C-6.37734 129.563 -5.60976 129.455 -5.94311 129.958C-7.24799 132.023 -5.28957 133.196 -2.70831 132.587C-2.56576 132.543 -2.42321 132.499 -2.29601 132.591C-1.16657 135.284 -1.77625 138.455 -1.41439 141.256C-1.21921 142.52 -0.670937 144.004 0.241386 145.043C1.30503 146.234 2.19981 146.218 4.07051 146.692C6.77677 147.37 6.61668 148.743 6.61887 150.796C6.60352 151.794 6.70221 153.022 6.50264 154.144L278.052 61.1011C277.943 60.8711 277.859 60.6977 277.82 60.4446C277.752 60.135 277.908 59.0927 277.835 58.2557C277.482 58.0345 277.173 57.7337 276.936 57.4099C275.892 57.8027 276.057 57.2878 276.46 56.764C275.875 55.888 275.701 55.0157 275.671 54.0973C275.079 53.8867 274.368 53.777 273.743 53.8407C273.258 53.8584 273.708 53.255 273.752 53.1753C274.473 52.287 275.335 51.6872 276.239 51.0059C276.326 50.8466 276.386 50.629 276.473 50.4697C276.533 50.252 276.592 50.0344 276.723 49.7937C276.427 49.6893 276.217 49.4239 276.166 48.9762C275.864 49.2027 275.535 49.3708 275.234 49.5991C274.719 49.8928 272.831 50.7475 273.756 49.5973C274.247 48.9143 274.723 48.3675 275.101 47.7853C274.837 47.4049 274.598 47.081 274.335 46.7006C273.379 46.9342 272.396 47.1093 271.554 47.2403C271.098 47.3164 271.592 46.6316 271.563 46.5749C272.199 45.8459 273.647 44.9293 272.747 44.0852C272.313 43.6906 270.32 43.9843 269.638 43.933C267.521 43.8003 266.205 43.2836 265.03 41.8626C264.275 40.9743 263.819 39.8577 263.065 38.9694C262.49 38.2864 261.631 37.6954 261.128 36.9911C260.681 36.4018 260.477 35.8055 260.413 35.1614C259.668 35.6604 258.911 35.963 259.014 35.6657C258.4 35.924 257.126 36.5222 257.591 35.7807C258.17 34.9366 258.806 34.2076 259.584 33.4343C259.628 33.3547 260.302 32.8787 260.933 32.4823C261.321 32.0965 262.183 31.4966 263.028 31.033C261.878 30.8632 260.692 31.3002 259.411 31.3692C259.242 31.3569 259.214 31.2985 259.159 31.1834C259.223 30.6331 259.286 30.0846 259.236 29.6369C258.571 29.4475 257.948 29.1785 257.398 28.8866C257.328 28.9096 257.227 28.8742 257.201 28.8158C256.396 28.3398 255.663 27.8408 255.091 27.1595C254.207 26.1756 254.181 24.9263 254.847 23.923C254.532 23.0949 254.216 22.2667 253.385 21.7323C252.806 21.3819 252.097 21.274 251.536 20.7874C250.874 20.2654 248.994 18.4038 248.832 17.7261C248.654 17.1846 249.321 16.1812 249.501 15.5301C249.501 15.5301 249.501 15.5301 249.43 15.5513C249.358 15.5743 248.832 15.6734 248.961 15.4327C249.332 14.3232 249.731 13.2721 250.099 12.1626C250.187 12.0033 250.389 11.7415 250.692 11.515C250.729 10.9062 250.764 10.2993 250.702 9.65693C250.444 9.80381 250.286 9.98607 250.027 10.1329C248.463 11.1522 247.832 10.6868 249.211 9.46051C249.602 9.07475 250.088 8.72261 250.477 8.33685C250.288 7.60072 249.968 7.10525 249.384 7.08932C249.216 7.07517 249.187 7.01854 249.132 6.90352C249.13 6.04352 249.126 5.18353 248.981 4.36777C248.909 4.389 248.838 4.412 248.722 4.51464C248.294 4.64735 248.24 4.53233 248.371 4.29344C247.799 4.47217 247.229 4.65089 246.63 4.77122C246.415 4.83846 246.174 4.84731 246.163 4.65266C245.9 3.07954 245.314 2.20361 243.663 1.32946C243.562 1.29407 243.623 1.07641 243.755 0.837524L-27.2687 93.7811C-27.6788 94.6375 -28.3104 96.2266 -27.8235 97.0671C-27.2555 98.0811 -27.7182 97.6298 -26.4704 97.8351C-25.1501 98.0191 -24.6896 97.6104 -24.4505 98.7924" fill="#FFC95F" fill-opacity="0.7"/>
</svg>
