<svg width="103" height="233" viewBox="0 0 103 233" fill="none" xmlns="http://www.w3.org/2000/svg">
<path d="M45.8087 25.446C45.9195 25.5706 43.9448 25.7312 43.8002 26.2202C43.7928 26.3577 44.152 26.9808 44.1361 27.253C43.9953 28.3981 41.558 28.3975 42.6165 29.8845C42.7273 30.0091 42.7974 30.1621 42.6384 30.1991C41.6781 30.492 40.7194 30.7847 39.7646 31.0094C38.3311 31.3451 38.0677 31.8456 39.2057 33.2789C39.3171 33.4049 39.4239 33.5976 39.2276 33.5935C36.6888 34.0561 35.4466 35.9136 33.0753 36.8583C30.4236 37.9191 30.8903 38.7363 28.3445 39.9915C28.6442 40.2576 25.4936 40.3907 25.7938 40.6582C26.0199 40.8407 26.3076 41.311 25.8036 41.1769C23.7496 40.6672 23.2787 42.0902 24.4506 43.6339C24.5241 43.7176 24.5977 43.8012 24.5539 43.896C22.605 45.0273 19.8104 45.1288 17.5738 45.7897C16.5732 46.1081 15.4797 46.6845 14.851 47.4232C14.1347 48.2814 14.3787 48.8465 14.4666 50.1063C14.6006 51.9274 13.4172 52.0373 11.7105 52.3548C10.8764 52.4988 9.88044 52.7505 8.89586 52.7966L156.298 210.732C156.461 210.627 156.584 210.548 156.784 210.484C157.024 210.393 157.931 210.331 158.609 210.156C158.702 209.898 158.872 209.656 159.081 209.456C158.485 208.854 158.955 208.879 159.495 209.054C160.073 208.548 160.754 208.304 161.51 208.143C161.532 207.735 161.44 207.267 161.226 206.88C161.086 206.576 161.704 206.768 161.782 206.783C162.706 207.104 163.428 207.559 164.227 208.027C164.382 208.058 164.579 208.062 164.734 208.093C164.93 208.097 165.126 208.101 165.36 208.148C165.371 207.944 165.537 207.769 165.897 207.668C165.63 207.511 165.406 207.329 165.138 207.173C164.761 206.891 163.563 205.825 164.759 206.235C165.454 206.442 166.031 206.659 166.612 206.809C166.861 206.583 167.069 206.382 167.317 206.156C166.877 205.586 166.478 204.989 166.151 204.475C165.971 204.198 166.667 204.405 166.707 204.379C167.478 204.67 168.613 205.447 169.083 204.746C169.3 204.41 168.541 203.191 168.408 202.75C167.973 201.387 168.063 200.473 168.942 199.508C169.486 198.893 170.298 198.432 170.842 197.816C171.262 197.347 171.532 196.71 171.988 196.283C172.363 195.909 172.806 195.687 173.326 195.548C172.718 195.152 172.272 194.718 172.545 194.738C172.172 194.388 171.346 193.672 172.083 193.853C172.934 194.09 173.704 194.381 174.548 194.756C174.626 194.772 175.195 195.125 175.688 195.465C176.109 195.652 176.83 196.106 177.433 196.571C177.278 195.815 176.609 195.13 176.221 194.328C176.188 194.219 176.229 194.192 176.311 194.14C176.785 194.095 177.258 194.051 177.617 193.95C177.603 193.499 177.666 193.063 177.767 192.669C177.73 192.628 177.733 192.558 177.775 192.533C177.963 191.949 178.19 191.407 178.609 190.939C179.199 190.227 180.232 190.018 181.238 190.286C181.845 189.958 182.453 189.631 182.683 189.021C182.825 188.6 182.732 188.134 182.992 187.703C183.256 187.202 184.319 185.723 184.841 185.516C185.246 185.32 186.252 185.588 186.84 185.602C186.84 185.602 186.84 185.602 186.804 185.561C186.767 185.518 186.548 185.2 186.782 185.245C187.8 185.309 188.778 185.4 189.795 185.463C189.95 185.494 190.22 185.582 190.487 185.739C191.003 185.669 191.517 185.598 192.035 185.46C191.846 185.319 191.654 185.246 191.465 185.105C190.214 184.27 190.438 183.798 191.814 184.484C192.235 184.672 192.654 184.927 193.075 185.113C193.638 184.88 193.968 184.601 193.831 184.229C193.799 184.119 193.839 184.092 193.92 184.04C194.635 183.906 195.349 183.771 195.99 183.553C195.954 183.511 195.917 183.47 195.801 183.412C195.581 183.161 195.662 183.109 195.895 183.155C195.599 182.82 195.303 182.485 195.049 182.124C194.937 181.998 194.868 181.847 195.027 181.81C196.267 181.4 196.845 180.894 197.146 179.712C197.15 179.642 197.347 179.648 197.579 179.695L50.3949 22.0777C49.5768 21.9495 48.0923 21.7935 47.5187 22.2318C46.8218 22.7482 47.0778 22.3852 47.2288 23.2084C47.4161 24.0743 47.8749 24.3035 46.9533 24.6372" fill="#FFC95F" fill-opacity="0.7"/>
</svg>
